# xmcd
#
# Track frame offsets: 
#        150
#        1735
#        21665
#        39815
#        54900
#        68460
#        86550
#        108367
#        128067
#        146122
#        163692
#        182675
#        200750
#
# Disc length: 3000 seconds
#
# Revision: 5
# Processed by: cddbd v1.5.2PL0 Copyright (c) Steve Scherf et al.
# Submitted via: ExactAudioCopyFreeDBPlugin 1.0
#
DISCID=a60bb60d
DTITLE=Montgomery Gentry - My Town
DYEAR=2002
DGENRE=Country
TTITLE0=My Town (Piano Intro)
TTITLE1=My Town
TTITLE2=Break My Heart Again
TTITLE3=Scarecrow
TTITLE4=Bad For Good
TTITLE5=Speed
TTITLE6=Hell Yeah
TTITLE7=Lonesome
TTITLE8=Why Do I Feel Like Running
TTITLE9=Free Fall
TTITLE10=Lie Before You Leave
TTITLE11=For The Money
TTITLE12=Good Clean Fun
EXTD=YEAR: 2002
EXTT0=
EXTT1=
EXTT2=
EXTT3=
EXTT4=
EXTT5=
EXTT6=
EXTT7=
EXTT8=
EXTT9=
EXTT10=
EXTT11=
EXTT12=
PLAYORDER=
